<?xml version="1.0" encoding="UTF-8"?>
<svg id="Capa_2" data-name="Capa 2" xmlns="http://www.w3.org/2000/svg" viewBox="0 0 60.87 13.95">
  <defs>
    <style>
      .cls-1 {
        fill: #fff;
      }
    </style>
  </defs>
  <g id="Capa_1-2" data-name="Capa 1">
    <g>
      <path class="cls-1" d="M8.87,0c-.14-.02-.08,0-.1.08-.56,1.86-.98,3.77-1.46,5.65l1.53,2.1,1.48-2.1L8.87,0ZM3.27,2.29s-.14-.02-.1.07l2.08,4.87c.79.56,1.55,1.75,2.3,2.26.04.03.05.07.13.05.1-.35.67-.82.76-1.14.03-.11-.04-.19-.09-.28-.34-.6-1.05-1.47-1.5-2.03-1.1-1.39-2.19-2.43-3.48-3.63-.07-.06-.09-.18-.1-.18ZM8.87,10.95c.04-.13.17-.28.26-.39.99-1.17,2.07-2.29,3.24-3.3l2.05-4.92c-2.59,2.09-4.49,4.85-6.35,7.57-.04.08.01.14.06.2.05.07.7.86.75.83ZM33.7,10.63l-4.59-6.48-4.49,6.48h1.74l.81-1.23h3.9s.81,1.23.81,1.23h1.81ZM26.39,5.5l.47-1.17c-.08-.13-.11-.03-.13-.03h-6.97v6.33h1.48l.08-.08v-2.31h3.54s.5-1.19.5-1.19h-3.86s-.12-.08-.18-.05v-1.5h5.08ZM32.8,4.31h-1.79l4.49,6.48.13-.03,4.35-6.5c-.58.11-1.17-.09-1.75.06l-2.68,4.24-2.75-4.25ZM47.13,4.31h-6.69v6.33h6.79v-1.24h-5.24v-1.4h4.15v-1.14h-4.07l-.08-.08v-1.27h5.13v-1.19ZM60.56,4.31h-2.05l-2.02,2.07-1.97-2.07h-2.1l3.11,3.03-3.42,3.3h2.05l2.33-2.38c.73.75,1.5,1.48,2.23,2.23.06.06.07.16.07.16h2.07l-3.42-3.3,3.11-3.03ZM0,4.88l.39.52,7,7.16.1.04,1.02-1.21C6.16,8.69,3.53,5.91,0,4.88ZM17.63,4.88c-4.17,1.28-7.23,4.79-9.75,8.17,0,.05.03.07.05.11.04.05.78.75.83.78.04.02.06.03.1,0,2.76-2.81,5.57-5.57,8.27-8.43l.49-.62ZM52.16,7.01l-3.99.08v1.11h3.99v-1.19ZM17.34,8.77c-.34.02-.7,0-1.04,0-.42,0-2.09.56-2.46.81-.98,1.07-2.04,2.08-3.04,3.13-.04.04-.13.11-.05.16,2.3-1.28,4.41-2.88,6.77-4.05.03-.21-.13-.05-.18-.05ZM6.9,12.86c.02-.1-.05-.12-.1-.18-.3-.36-.75-.79-1.09-1.14-.43-.44-1.57-1.72-2.01-1.99-.21-.13-.77-.34-1.03-.42-.81-.28-1.65-.42-2.52-.36l6.74,4.1Z"/>
      <polygon points="47.13 4.31 47.13 5.5 42 5.5 42 6.77 42.08 6.85 46.15 6.85 46.15 7.99 42 7.99 42 9.39 47.24 9.39 47.24 10.63 40.44 10.63 40.44 4.31 47.13 4.31"/>
      <path d="M60.56,4.31l-3.11,3.03,3.42,3.3h-2.07s-.02-.1-.07-.16c-.73-.75-1.5-1.48-2.23-2.23l-2.33,2.38h-2.05l3.42-3.3-3.11-3.03h2.1l1.97,2.07,2.02-2.07h2.05Z"/>
      <path d="M33.7,10.63h-1.81l-.81-1.24h-3.9s-.81,1.24-.81,1.24h-1.74l4.49-6.48,4.59,6.48ZM30.39,8.3l-1.27-1.92-1.22,1.92h2.49Z"/>
      <path d="M26.39,5.5h-5.08v1.5c.07-.03.15.05.18.05h3.86l-.5,1.19h-3.54s0,2.31,0,2.31l-.08.08h-1.48v-6.33h6.97s.05-.1.13.03l-.47,1.17Z"/>
      <path d="M32.8,4.31l2.75,4.25,2.68-4.24c.58-.16,1.17.04,1.75-.06l-4.35,6.5-.13.03-4.49-6.48h1.79Z"/>
      <path d="M17.63,4.88l-.49.62c-2.7,2.86-5.51,5.62-8.27,8.43-.04.03-.06.02-.1,0-.05-.03-.8-.73-.83-.78-.02-.03-.05-.06-.05-.11,2.52-3.37,5.58-6.89,9.75-8.17Z"/>
      <path d="M0,4.88c3.53,1.04,6.16,3.81,8.5,6.51l-1.02,1.21-.1-.04L.39,5.4l-.39-.52Z"/>
      <path d="M8.87,10.95s-.7-.76-.75-.83c-.04-.06-.1-.12-.06-.2,1.86-2.72,3.77-5.49,6.35-7.57l-2.05,4.92c-1.16,1.01-2.24,2.12-3.24,3.3-.09.11-.22.25-.26.39Z"/>
      <path d="M8.87,0l1.46,5.73-1.48,2.1-1.53-2.1c.47-1.89.89-3.79,1.46-5.65.02-.07-.03-.09.1-.08Z"/>
      <path d="M3.27,2.29s.03.12.1.18c1.29,1.19,2.37,2.24,3.48,3.63.45.56,1.16,1.43,1.5,2.03.05.08.12.17.09.28-.09.32-.65.79-.76,1.14-.08.02-.09-.02-.13-.05-.75-.52-1.51-1.71-2.3-2.26L3.17,2.36c-.04-.09.07-.1.1-.07Z"/>
      <path d="M17.34,8.77c.06,0,.21-.16.18.05-2.36,1.17-4.47,2.77-6.77,4.05-.08-.05.01-.12.05-.16.99-1.05,2.05-2.06,3.04-3.13.37-.24,2.04-.81,2.46-.81.34,0,.7.02,1.04,0Z"/>
      <path d="M6.9,12.86L.16,8.77c.86-.06,1.7.09,2.52.36.26.09.82.29,1.03.42.43.27,1.58,1.54,2.01,1.99.34.35.79.78,1.09,1.14.05.06.13.08.1.18Z"/>
      <polygon points="52.16 7.01 52.16 8.2 48.17 8.2 48.17 7.08 52.16 7.01"/>
      <polygon class="cls-1" points="30.39 8.3 27.9 8.3 29.12 6.38 30.39 8.3"/>
    </g>
  </g>
</svg>