<svg width="283" height="65" viewBox="0 0 283 65" fill="none" xmlns="http://www.w3.org/2000/svg">
<g clip-path="url(#clip0_6524_7556)">
<path d="M219.119 20.0824V25.6272H195.269V31.5448L195.641 31.9176H214.563V37.2294H195.269V43.7527H219.631V49.5305H188.016V20.0824H219.119Z" fill="#5C723B"/>
<path d="M281.559 20.0824L267.1 34.2007L283 49.5771H273.376C273.376 49.5771 273.283 49.1111 273.051 48.8315C269.657 45.3369 266.077 41.9355 262.683 38.4409L251.85 49.5305H242.319L258.219 34.1541L243.76 20.0358H253.524L262.683 29.681L272.074 20.0358H281.605L281.559 20.0824Z" fill="#5C723B"/>
<path d="M156.68 49.5305H148.265L144.499 43.7527H126.367L122.601 49.5305H114.511L135.386 19.3369L156.726 49.5305H156.68ZM141.291 38.6738L135.386 29.7276L129.714 38.6738H141.291Z" fill="#5C723B"/>
<path d="M122.694 25.6272H99.0756V32.6165C99.401 32.4767 99.773 32.8495 99.9125 32.8495H117.859L115.534 38.3943H99.0756V49.1577L98.7036 49.5305H91.8228V20.0358H124.228C124.228 20.0358 124.461 19.5699 124.832 20.1756L122.647 25.6272H122.694Z" fill="#5C723B"/>
<path d="M152.495 20.0824L165.281 39.8853L177.741 20.129C180.438 19.3835 183.181 20.3154 185.877 19.8495L165.653 50.1362L165.048 50.276L144.173 20.0824H152.495Z" fill="#5C723B"/>
<path d="M81.9663 22.7384L79.6882 25.6272C67.1352 38.9534 54.0708 51.8136 41.2389 64.9068C41.0529 65.0466 40.9599 65 40.774 64.9068C40.5415 64.767 37.0546 61.5054 36.9151 61.2724C36.8221 61.1326 36.6826 60.9928 36.6826 60.7599C48.3987 45.0573 62.6254 28.6559 82.0128 22.6918L81.9663 22.7384Z" fill="#5C723B"/>
<path d="M0 22.7383C16.4119 27.5842 28.6394 40.491 39.5186 53.0717L34.7764 58.7097L34.3115 58.5233L1.81321 25.1613L0 22.7383Z" fill="#5C723B"/>
<path d="M41.2388 51.0215C41.2388 51.0215 37.9844 47.4803 37.7519 47.1541C37.5659 46.8745 37.287 46.595 37.473 46.2222C46.1206 33.5484 55.0006 20.6416 66.9957 10.9498L57.4647 33.8745C52.0716 38.5806 47.0504 43.7527 42.4012 49.2509C41.9827 49.7634 41.3783 50.4158 41.1923 51.0681L41.2388 51.0215Z" fill="#5C723B"/>
<path d="M41.2389 -1.12642e-05L48.0268 26.6989L41.1459 36.4839L34.0325 26.6989C36.2177 17.8925 38.1704 9.03942 40.8204 0.372749C40.9134 0.0465837 40.681 -0.0466062 41.2854 -1.12642e-05H41.2389Z" fill="#5C723B"/>
<path d="M15.2031 10.6702C15.2031 10.6702 15.3426 11.2294 15.668 11.509C21.6655 17.0538 26.6867 21.9462 31.8474 28.4229C33.9396 31.0323 37.2405 35.086 38.8213 37.8817C39.0538 38.2545 39.3792 38.6738 39.2397 39.1864C38.8213 40.6774 36.2177 42.8674 35.7063 44.4982C35.3343 44.5914 35.2879 44.405 35.1019 44.2652C31.6149 41.8423 28.0815 36.2975 24.4086 33.7348L14.7382 10.9964C14.5522 10.5771 15.0636 10.5305 15.2031 10.6702Z" fill="#5C723B"/>
<path d="M80.618 40.8638C80.897 40.8638 81.5944 40.1183 81.4549 41.0968C70.4827 46.5484 60.6727 54.0036 49.9794 59.9677C49.6075 59.7348 50.0259 59.4086 50.2119 59.2222C54.8147 54.3297 59.7429 49.6237 64.3456 44.638C66.0659 43.5197 73.8301 40.8638 75.7828 40.8638C77.3635 40.8638 79.0373 40.957 80.618 40.8638Z" fill="#5C723B"/>
<path d="M32.0799 59.9211L0.743896 40.8638C4.74225 40.5842 8.64763 41.2832 12.46 42.5412C13.6688 42.9606 16.2724 43.8925 17.2487 44.4982C19.2479 45.7563 24.5946 51.6738 26.5937 53.7706C28.1745 55.4014 30.2666 57.405 31.6614 59.0824C31.8939 59.362 32.2658 59.4552 32.1264 59.9211H32.0799Z" fill="#5C723B"/>
<path d="M242.505 32.6631V38.2079H223.954V32.9892L242.505 32.6631Z" fill="#5C723B"/>
</g>
<defs>
<clipPath id="clip0_6524_7556">
<rect width="283" height="65" fill="white"/>
</clipPath>
</defs>
</svg>
